<?xml version="1.0" encoding="UTF-8" standalone="no"?>
<svg
   width="308.7612359841165"
   height="304.915625"
   viewBox="0 0 308.7612359841165 304.915625"
   class="css-1j8o68f"
   version="1.1"
   id="svg9"
   xmlns="http://www.w3.org/2000/svg"
   xmlns:svg="http://www.w3.org/2000/svg">
  <defs
     id="SvgjsDefs2684"></defs>
  <g
     id="SvgjsG2685"
     featurekey="4K7G0D-0"
     transform="matrix(3.0487804878048776,0,0,3.0487804878048776,-12.195121951219512,-18.292682926829266)"
     fill="#6b7280">
    <path
       d="M 14.22,11.9 V 6 h 2 v 14 h -2 v -6.1 h -8.44 v 6.1 h -2 V 6 h 2 v 5.9 z m 4.5,-5.9 h 2 v 14 h -2 z m 4.5,0 h 6.34 c 1.7,0 2.6,0.9 2.6,2.6 v 2.92 c 0,1.06 -0.46,1.78 -1.36,2.14 v 0.08 c 0.9,0.36 1.36,1.06 1.36,2.12 v 4.14 h -2 v -3.8 c 0,-0.92 -0.46,-1.38 -1.38,-1.38 h -3.56 v 5.18 h -2 z m 2,6.9 h 4.34 c 0.92,0 1.38,-0.46 1.38,-1.38 V 8.6 c 0,-0.92 -0.46,-1.38 -1.38,-1.38 h -4.34 z"
       id="path3" />
  </g>
</svg>
